<mxfile host="app.diagrams.net" agent="Mozilla/5.0 (Windows NT 10.0; Win64; x64) AppleWebKit/537.36 (KHTML, like Gecko) Chrome/136.0.0.0 Safari/537.36" version="27.1.1">
  <diagram id="C5RBs43oDa-KdzZeNtuy" name="Page-1">
    <mxGraphModel dx="6407" dy="2477" grid="1" gridSize="10" guides="1" tooltips="1" connect="1" arrows="1" fold="1" page="1" pageScale="1" pageWidth="827" pageHeight="1169" math="0" shadow="0">
      <root>
        <mxCell id="WIyWlLk6GJQsqaUBKTNV-0" />
        <mxCell id="WIyWlLk6GJQsqaUBKTNV-1" parent="WIyWlLk6GJQsqaUBKTNV-0" />
        <mxCell id="r6FBFTWDfDrPuH4waTix-132" style="edgeStyle=entityRelationEdgeStyle;rounded=0;orthogonalLoop=1;jettySize=auto;html=1;entryX=1;entryY=0.5;entryDx=0;entryDy=0;exitX=-0.014;exitY=0.077;exitDx=0;exitDy=0;exitPerimeter=0;endArrow=diamondThin;endFill=0;endSize=12;" edge="1" parent="WIyWlLk6GJQsqaUBKTNV-1" source="zkfFHV4jXpPFQw0GAbJ--6" target="Lt1glxpejdCGCQJNRhZV-55">
          <mxGeometry relative="1" as="geometry" />
        </mxCell>
        <mxCell id="r6FBFTWDfDrPuH4waTix-134" value="1" style="edgeLabel;html=1;align=center;verticalAlign=middle;resizable=0;points=[];" vertex="1" connectable="0" parent="r6FBFTWDfDrPuH4waTix-132">
          <mxGeometry x="-0.8974" y="-2" relative="1" as="geometry">
            <mxPoint as="offset" />
          </mxGeometry>
        </mxCell>
        <mxCell id="r6FBFTWDfDrPuH4waTix-135" value="1" style="edgeLabel;html=1;align=center;verticalAlign=middle;resizable=0;points=[];" vertex="1" connectable="0" parent="r6FBFTWDfDrPuH4waTix-132">
          <mxGeometry x="0.7771" relative="1" as="geometry">
            <mxPoint x="4" as="offset" />
          </mxGeometry>
        </mxCell>
        <mxCell id="zkfFHV4jXpPFQw0GAbJ--6" value="&lt;class&gt;&#xa;Marathon" style="swimlane;fontStyle=0;align=center;verticalAlign=top;childLayout=stackLayout;horizontal=1;startSize=40;horizontalStack=0;resizeParent=1;resizeLast=0;collapsible=1;marginBottom=0;rounded=0;shadow=0;strokeWidth=1;fillColor=#d5e8d4;strokeColor=#82b366;" parent="WIyWlLk6GJQsqaUBKTNV-1" vertex="1">
          <mxGeometry x="-1001" y="226" width="450" height="135" as="geometry">
            <mxRectangle x="130" y="380" width="160" height="26" as="alternateBounds" />
          </mxGeometry>
        </mxCell>
        <mxCell id="zkfFHV4jXpPFQw0GAbJ--7" value="- city : String" style="text;align=left;verticalAlign=top;spacingLeft=4;spacingRight=4;overflow=hidden;rotatable=0;points=[[0,0.5],[1,0.5]];portConstraint=eastwest;" parent="zkfFHV4jXpPFQw0GAbJ--6" vertex="1">
          <mxGeometry y="40" width="450" height="26" as="geometry" />
        </mxCell>
        <mxCell id="zkfFHV4jXpPFQw0GAbJ--8" value="- races : List&lt;Race&gt;" style="text;align=left;verticalAlign=top;spacingLeft=4;spacingRight=4;overflow=hidden;rotatable=0;points=[[0,0.5],[1,0.5]];portConstraint=eastwest;rounded=0;shadow=0;html=0;" parent="zkfFHV4jXpPFQw0GAbJ--6" vertex="1">
          <mxGeometry y="66" width="450" height="26" as="geometry" />
        </mxCell>
        <mxCell id="zkfFHV4jXpPFQw0GAbJ--9" value="" style="line;html=1;strokeWidth=1;align=left;verticalAlign=middle;spacingTop=-1;spacingLeft=3;spacingRight=3;rotatable=0;labelPosition=right;points=[];portConstraint=eastwest;" parent="zkfFHV4jXpPFQw0GAbJ--6" vertex="1">
          <mxGeometry y="92" width="450" height="8" as="geometry" />
        </mxCell>
        <mxCell id="r6FBFTWDfDrPuH4waTix-143" value="+ getWinnersAnouncement() : String throws RunnerAlreadyInRaceException()" style="text;align=left;verticalAlign=top;spacingLeft=4;spacingRight=4;overflow=hidden;rotatable=0;points=[[0,0.5],[1,0.5]];portConstraint=eastwest;" vertex="1" parent="zkfFHV4jXpPFQw0GAbJ--6">
          <mxGeometry y="100" width="450" height="26" as="geometry" />
        </mxCell>
        <mxCell id="r6FBFTWDfDrPuH4waTix-110" style="edgeStyle=entityRelationEdgeStyle;rounded=0;orthogonalLoop=1;jettySize=auto;html=1;entryX=1;entryY=0.5;entryDx=0;entryDy=0;endArrow=diamondThin;startFill=0;exitX=0.02;exitY=0.067;exitDx=0;exitDy=0;exitPerimeter=0;endFill=0;endSize=12;" edge="1" parent="WIyWlLk6GJQsqaUBKTNV-1" source="zkfFHV4jXpPFQw0GAbJ--13" target="r6FBFTWDfDrPuH4waTix-11">
          <mxGeometry relative="1" as="geometry">
            <Array as="points">
              <mxPoint x="-501" y="692" />
            </Array>
          </mxGeometry>
        </mxCell>
        <mxCell id="r6FBFTWDfDrPuH4waTix-121" value="1" style="edgeLabel;html=1;align=center;verticalAlign=middle;resizable=0;points=[];" vertex="1" connectable="0" parent="r6FBFTWDfDrPuH4waTix-110">
          <mxGeometry x="0.7205" y="-1" relative="1" as="geometry">
            <mxPoint x="-10" y="18" as="offset" />
          </mxGeometry>
        </mxCell>
        <mxCell id="r6FBFTWDfDrPuH4waTix-122" value="n" style="edgeLabel;html=1;align=center;verticalAlign=middle;resizable=0;points=[];" vertex="1" connectable="0" parent="r6FBFTWDfDrPuH4waTix-110">
          <mxGeometry x="-0.7132" y="2" relative="1" as="geometry">
            <mxPoint x="25" y="-19" as="offset" />
          </mxGeometry>
        </mxCell>
        <mxCell id="zkfFHV4jXpPFQw0GAbJ--13" value="&lt;class&gt;&#xa;Runner" style="swimlane;fontStyle=0;align=center;verticalAlign=top;childLayout=stackLayout;horizontal=1;startSize=39;horizontalStack=0;resizeParent=1;resizeLast=0;collapsible=1;marginBottom=0;rounded=0;shadow=0;strokeWidth=1;fillColor=#d5e8d4;strokeColor=#82b366;" parent="WIyWlLk6GJQsqaUBKTNV-1" vertex="1">
          <mxGeometry x="254" y="600" width="160" height="125" as="geometry">
            <mxRectangle x="340" y="380" width="170" height="26" as="alternateBounds" />
          </mxGeometry>
        </mxCell>
        <mxCell id="r6FBFTWDfDrPuH4waTix-8" value="- raceCategory : Race" style="text;align=left;verticalAlign=top;spacingLeft=4;spacingRight=4;overflow=hidden;rotatable=0;points=[[0,0.5],[1,0.5]];portConstraint=eastwest;" vertex="1" parent="zkfFHV4jXpPFQw0GAbJ--13">
          <mxGeometry y="39" width="160" height="26" as="geometry" />
        </mxCell>
        <mxCell id="Lt1glxpejdCGCQJNRhZV-0" value="- runTime : double" style="text;align=left;verticalAlign=top;spacingLeft=4;spacingRight=4;overflow=hidden;rotatable=0;points=[[0,0.5],[1,0.5]];portConstraint=eastwest;" parent="zkfFHV4jXpPFQw0GAbJ--13" vertex="1">
          <mxGeometry y="65" width="160" height="26" as="geometry" />
        </mxCell>
        <mxCell id="zkfFHV4jXpPFQw0GAbJ--15" value="" style="line;html=1;strokeWidth=1;align=left;verticalAlign=middle;spacingTop=-1;spacingLeft=3;spacingRight=3;rotatable=0;labelPosition=right;points=[];portConstraint=eastwest;" parent="zkfFHV4jXpPFQw0GAbJ--13" vertex="1">
          <mxGeometry y="91" width="160" height="8" as="geometry" />
        </mxCell>
        <mxCell id="r6FBFTWDfDrPuH4waTix-7" value="+ run()" style="text;align=left;verticalAlign=top;spacingLeft=4;spacingRight=4;overflow=hidden;rotatable=0;points=[[0,0.5],[1,0.5]];portConstraint=eastwest;fontStyle=0" vertex="1" parent="zkfFHV4jXpPFQw0GAbJ--13">
          <mxGeometry y="99" width="160" height="26" as="geometry" />
        </mxCell>
        <mxCell id="r6FBFTWDfDrPuH4waTix-80" style="edgeStyle=entityRelationEdgeStyle;rounded=0;orthogonalLoop=1;jettySize=auto;html=1;entryX=1;entryY=0.5;entryDx=0;entryDy=0;exitX=-0.004;exitY=0.125;exitDx=0;exitDy=0;exitPerimeter=0;endArrow=diamondThin;endFill=1;endSize=12;" edge="1" parent="WIyWlLk6GJQsqaUBKTNV-1" source="zkfFHV4jXpPFQw0GAbJ--17" target="zkfFHV4jXpPFQw0GAbJ--8">
          <mxGeometry relative="1" as="geometry" />
        </mxCell>
        <mxCell id="r6FBFTWDfDrPuH4waTix-123" value="1" style="edgeLabel;html=1;align=center;verticalAlign=middle;resizable=0;points=[];" vertex="1" connectable="0" parent="r6FBFTWDfDrPuH4waTix-80">
          <mxGeometry x="0.7832" relative="1" as="geometry">
            <mxPoint x="-10" as="offset" />
          </mxGeometry>
        </mxCell>
        <mxCell id="r6FBFTWDfDrPuH4waTix-124" value="3" style="edgeLabel;html=1;align=center;verticalAlign=middle;resizable=0;points=[];" vertex="1" connectable="0" parent="r6FBFTWDfDrPuH4waTix-80">
          <mxGeometry x="-0.8049" y="-2" relative="1" as="geometry">
            <mxPoint x="10" as="offset" />
          </mxGeometry>
        </mxCell>
        <mxCell id="zkfFHV4jXpPFQw0GAbJ--17" value="&lt;class&gt;&#xa;Race" style="swimlane;fontStyle=0;align=center;verticalAlign=top;childLayout=stackLayout;horizontal=1;startSize=47;horizontalStack=0;resizeParent=1;resizeLast=0;collapsible=1;marginBottom=0;rounded=0;shadow=0;strokeWidth=1;fillColor=#d5e8d4;strokeColor=#82b366;" parent="WIyWlLk6GJQsqaUBKTNV-1" vertex="1">
          <mxGeometry x="-420" y="700" width="451" height="216" as="geometry">
            <mxRectangle x="550" y="140" width="160" height="26" as="alternateBounds" />
          </mxGeometry>
        </mxCell>
        <mxCell id="zkfFHV4jXpPFQw0GAbJ--18" value="- length : RaceLength" style="text;align=left;verticalAlign=top;spacingLeft=4;spacingRight=4;overflow=hidden;rotatable=0;points=[[0,0.5],[1,0.5]];portConstraint=eastwest;" parent="zkfFHV4jXpPFQw0GAbJ--17" vertex="1">
          <mxGeometry y="47" width="451" height="26" as="geometry" />
        </mxCell>
        <mxCell id="zkfFHV4jXpPFQw0GAbJ--19" value="- startTime : String" style="text;align=left;verticalAlign=top;spacingLeft=4;spacingRight=4;overflow=hidden;rotatable=0;points=[[0,0.5],[1,0.5]];portConstraint=eastwest;rounded=0;shadow=0;html=0;" parent="zkfFHV4jXpPFQw0GAbJ--17" vertex="1">
          <mxGeometry y="73" width="451" height="26" as="geometry" />
        </mxCell>
        <mxCell id="zkfFHV4jXpPFQw0GAbJ--20" value="- costPerRunner : double" style="text;align=left;verticalAlign=top;spacingLeft=4;spacingRight=4;overflow=hidden;rotatable=0;points=[[0,0.5],[1,0.5]];portConstraint=eastwest;rounded=0;shadow=0;html=0;" parent="zkfFHV4jXpPFQw0GAbJ--17" vertex="1">
          <mxGeometry y="99" width="451" height="26" as="geometry" />
        </mxCell>
        <mxCell id="r6FBFTWDfDrPuH4waTix-11" value="- runners : List&lt;Runner&gt;" style="text;align=left;verticalAlign=top;spacingLeft=4;spacingRight=4;overflow=hidden;rotatable=0;points=[[0,0.5],[1,0.5]];portConstraint=eastwest;rounded=0;shadow=0;html=0;" vertex="1" parent="zkfFHV4jXpPFQw0GAbJ--17">
          <mxGeometry y="125" width="451" height="26" as="geometry" />
        </mxCell>
        <mxCell id="zkfFHV4jXpPFQw0GAbJ--23" value="" style="line;html=1;strokeWidth=1;align=left;verticalAlign=middle;spacingTop=-1;spacingLeft=3;spacingRight=3;rotatable=0;labelPosition=right;points=[];portConstraint=eastwest;" parent="zkfFHV4jXpPFQw0GAbJ--17" vertex="1">
          <mxGeometry y="151" width="451" height="8" as="geometry" />
        </mxCell>
        <mxCell id="zkfFHV4jXpPFQw0GAbJ--24" value="+ getWinner() : Runner" style="text;align=left;verticalAlign=top;spacingLeft=4;spacingRight=4;overflow=hidden;rotatable=0;points=[[0,0.5],[1,0.5]];portConstraint=eastwest;" parent="zkfFHV4jXpPFQw0GAbJ--17" vertex="1">
          <mxGeometry y="159" width="451" height="26" as="geometry" />
        </mxCell>
        <mxCell id="r6FBFTWDfDrPuH4waTix-10" value="+ addRunner(newRunner : Runner) : void throws RunnerAlreadyInRaceException()" style="text;align=left;verticalAlign=top;spacingLeft=4;spacingRight=4;overflow=hidden;rotatable=0;points=[[0,0.5],[1,0.5]];portConstraint=eastwest;" vertex="1" parent="zkfFHV4jXpPFQw0GAbJ--17">
          <mxGeometry y="185" width="451" height="26" as="geometry" />
        </mxCell>
        <mxCell id="r6FBFTWDfDrPuH4waTix-137" style="edgeStyle=orthogonalEdgeStyle;rounded=0;orthogonalLoop=1;jettySize=auto;html=1;entryX=0.5;entryY=0;entryDx=0;entryDy=0;dashed=1;endArrow=block;endFill=1;endSize=12;" edge="1" parent="WIyWlLk6GJQsqaUBKTNV-1" source="Lt1glxpejdCGCQJNRhZV-5" target="Lt1glxpejdCGCQJNRhZV-97">
          <mxGeometry relative="1" as="geometry">
            <Array as="points">
              <mxPoint x="1237.3400000000001" y="792" />
              <mxPoint x="1082.3400000000001" y="792" />
              <mxPoint x="1082.3400000000001" y="852" />
            </Array>
          </mxGeometry>
        </mxCell>
        <mxCell id="r6FBFTWDfDrPuH4waTix-146" style="edgeStyle=orthogonalEdgeStyle;rounded=0;orthogonalLoop=1;jettySize=auto;html=1;endArrow=block;endFill=1;fillColor=#e1d5e7;strokeColor=#000000;endSize=12;" edge="1" parent="WIyWlLk6GJQsqaUBKTNV-1" source="Lt1glxpejdCGCQJNRhZV-5">
          <mxGeometry relative="1" as="geometry">
            <mxPoint x="942.3400000000001" y="552" as="targetPoint" />
            <Array as="points">
              <mxPoint x="1237.3400000000001" y="632" />
              <mxPoint x="942.3400000000001" y="632" />
            </Array>
          </mxGeometry>
        </mxCell>
        <mxCell id="Lt1glxpejdCGCQJNRhZV-5" value="&lt;class&gt;&#xa;Paramedic" style="swimlane;fontStyle=0;align=center;verticalAlign=top;childLayout=stackLayout;horizontal=1;startSize=41;horizontalStack=0;resizeParent=1;resizeLast=0;collapsible=1;marginBottom=0;rounded=0;shadow=0;strokeWidth=1;fillColor=#d5e8d4;strokeColor=#82b366;" parent="WIyWlLk6GJQsqaUBKTNV-1" vertex="1">
          <mxGeometry x="1122.3400000000001" y="645" width="230" height="125" as="geometry">
            <mxRectangle x="340" y="380" width="170" height="26" as="alternateBounds" />
          </mxGeometry>
        </mxCell>
        <mxCell id="Lt1glxpejdCGCQJNRhZV-6" value="- firstAidTrainingDate : String" style="text;align=left;verticalAlign=top;spacingLeft=4;spacingRight=4;overflow=hidden;rotatable=0;points=[[0,0.5],[1,0.5]];portConstraint=eastwest;" parent="Lt1glxpejdCGCQJNRhZV-5" vertex="1">
          <mxGeometry y="41" width="230" height="24" as="geometry" />
        </mxCell>
        <mxCell id="Lt1glxpejdCGCQJNRhZV-8" value="" style="line;html=1;strokeWidth=1;align=left;verticalAlign=middle;spacingTop=-1;spacingLeft=3;spacingRight=3;rotatable=0;labelPosition=right;points=[];portConstraint=eastwest;" parent="Lt1glxpejdCGCQJNRhZV-5" vertex="1">
          <mxGeometry y="65" width="230" height="8" as="geometry" />
        </mxCell>
        <mxCell id="r6FBFTWDfDrPuH4waTix-24" value="+ helpRunner(runner : Runner) : void" style="text;align=left;verticalAlign=top;spacingLeft=4;spacingRight=4;overflow=hidden;rotatable=0;points=[[0,0.5],[1,0.5]];portConstraint=eastwest;" vertex="1" parent="Lt1glxpejdCGCQJNRhZV-5">
          <mxGeometry y="73" width="230" height="26" as="geometry" />
        </mxCell>
        <mxCell id="r6FBFTWDfDrPuH4waTix-142" value="+ getPayment() : void" style="text;align=left;verticalAlign=top;spacingLeft=4;spacingRight=4;overflow=hidden;rotatable=0;points=[[0,0.5],[1,0.5]];portConstraint=eastwest;" vertex="1" parent="Lt1glxpejdCGCQJNRhZV-5">
          <mxGeometry y="99" width="230" height="26" as="geometry" />
        </mxCell>
        <mxCell id="r6FBFTWDfDrPuH4waTix-108" style="edgeStyle=orthogonalEdgeStyle;rounded=0;orthogonalLoop=1;jettySize=auto;html=1;entryX=0.5;entryY=1;entryDx=0;entryDy=0;endArrow=block;endFill=1;endSize=12;" edge="1" parent="WIyWlLk6GJQsqaUBKTNV-1" source="Lt1glxpejdCGCQJNRhZV-9" target="Lt1glxpejdCGCQJNRhZV-26">
          <mxGeometry relative="1" as="geometry" />
        </mxCell>
        <mxCell id="r6FBFTWDfDrPuH4waTix-140" style="edgeStyle=orthogonalEdgeStyle;rounded=0;orthogonalLoop=1;jettySize=auto;html=1;dashed=1;endArrow=block;endFill=1;entryX=0.5;entryY=0;entryDx=0;entryDy=0;endSize=12;" edge="1" parent="WIyWlLk6GJQsqaUBKTNV-1" target="Lt1glxpejdCGCQJNRhZV-97">
          <mxGeometry relative="1" as="geometry">
            <mxPoint x="932.3399999999997" y="769.9999999999998" as="sourcePoint" />
            <mxPoint x="1082.3400000000001" y="852" as="targetPoint" />
            <Array as="points">
              <mxPoint x="932.3400000000001" y="792" />
              <mxPoint x="1082.3400000000001" y="792" />
            </Array>
          </mxGeometry>
        </mxCell>
        <mxCell id="Lt1glxpejdCGCQJNRhZV-9" value="&lt;class&gt;&#xa;Physiotherapist (class)" style="swimlane;fontStyle=0;align=center;verticalAlign=top;childLayout=stackLayout;horizontal=1;startSize=38;horizontalStack=0;resizeParent=1;resizeLast=0;collapsible=1;marginBottom=0;rounded=0;shadow=0;strokeWidth=1;fillColor=#d5e8d4;strokeColor=#82b366;" parent="WIyWlLk6GJQsqaUBKTNV-1" vertex="1">
          <mxGeometry x="862.3400000000001" y="674" width="160" height="96" as="geometry">
            <mxRectangle x="340" y="380" width="170" height="26" as="alternateBounds" />
          </mxGeometry>
        </mxCell>
        <mxCell id="Lt1glxpejdCGCQJNRhZV-10" value="- specialty : String" style="text;align=left;verticalAlign=top;spacingLeft=4;spacingRight=4;overflow=hidden;rotatable=0;points=[[0,0.5],[1,0.5]];portConstraint=eastwest;" parent="Lt1glxpejdCGCQJNRhZV-9" vertex="1">
          <mxGeometry y="38" width="160" height="24" as="geometry" />
        </mxCell>
        <mxCell id="Lt1glxpejdCGCQJNRhZV-12" value="" style="line;html=1;strokeWidth=1;align=left;verticalAlign=middle;spacingTop=-1;spacingLeft=3;spacingRight=3;rotatable=0;labelPosition=right;points=[];portConstraint=eastwest;" parent="Lt1glxpejdCGCQJNRhZV-9" vertex="1">
          <mxGeometry y="62" width="160" height="8" as="geometry" />
        </mxCell>
        <mxCell id="r6FBFTWDfDrPuH4waTix-141" value="+ getPayment() : void" style="text;align=left;verticalAlign=top;spacingLeft=4;spacingRight=4;overflow=hidden;rotatable=0;points=[[0,0.5],[1,0.5]];portConstraint=eastwest;" vertex="1" parent="Lt1glxpejdCGCQJNRhZV-9">
          <mxGeometry y="70" width="160" height="26" as="geometry" />
        </mxCell>
        <mxCell id="r6FBFTWDfDrPuH4waTix-107" style="edgeStyle=orthogonalEdgeStyle;rounded=0;orthogonalLoop=1;jettySize=auto;html=1;entryX=0.5;entryY=1;entryDx=0;entryDy=0;endArrow=block;endFill=1;endSize=12;" edge="1" parent="WIyWlLk6GJQsqaUBKTNV-1" source="Lt1glxpejdCGCQJNRhZV-13" target="Lt1glxpejdCGCQJNRhZV-26">
          <mxGeometry relative="1" as="geometry">
            <Array as="points">
              <mxPoint x="712.3400000000001" y="632" />
              <mxPoint x="942.3400000000001" y="632" />
            </Array>
          </mxGeometry>
        </mxCell>
        <mxCell id="Lt1glxpejdCGCQJNRhZV-13" value="&lt;class&gt;&#xa;securityPerson (class)" style="swimlane;fontStyle=0;align=center;verticalAlign=top;childLayout=stackLayout;horizontal=1;startSize=38;horizontalStack=0;resizeParent=1;resizeLast=0;collapsible=1;marginBottom=0;rounded=0;shadow=0;strokeWidth=1;fillColor=#d5e8d4;strokeColor=#82b366;" parent="WIyWlLk6GJQsqaUBKTNV-1" vertex="1">
          <mxGeometry x="632.3400000000001" y="674" width="160" height="54" as="geometry">
            <mxRectangle x="340" y="380" width="170" height="26" as="alternateBounds" />
          </mxGeometry>
        </mxCell>
        <mxCell id="Lt1glxpejdCGCQJNRhZV-16" value="" style="line;html=1;strokeWidth=1;align=left;verticalAlign=middle;spacingTop=-1;spacingLeft=3;spacingRight=3;rotatable=0;labelPosition=right;points=[];portConstraint=eastwest;" parent="Lt1glxpejdCGCQJNRhZV-13" vertex="1">
          <mxGeometry y="38" width="160" height="14" as="geometry" />
        </mxCell>
        <mxCell id="Lt1glxpejdCGCQJNRhZV-17" value="&lt;class&gt;&#xa;MarathonManagement" style="swimlane;fontStyle=0;align=center;verticalAlign=top;childLayout=stackLayout;horizontal=1;startSize=40;horizontalStack=0;resizeParent=1;resizeLast=0;collapsible=1;marginBottom=0;rounded=0;shadow=0;strokeWidth=1;fillColor=#d5e8d4;strokeColor=#82b366;" parent="WIyWlLk6GJQsqaUBKTNV-1" vertex="1">
          <mxGeometry x="-1455" y="290.8699999999999" width="320" height="225" as="geometry">
            <mxRectangle x="550" y="140" width="160" height="26" as="alternateBounds" />
          </mxGeometry>
        </mxCell>
        <mxCell id="Lt1glxpejdCGCQJNRhZV-55" value="- marathonEvent : Marathon" style="text;align=left;verticalAlign=top;spacingLeft=4;spacingRight=4;overflow=hidden;rotatable=0;points=[[0,0.5],[1,0.5]];portConstraint=eastwest;" parent="Lt1glxpejdCGCQJNRhZV-17" vertex="1">
          <mxGeometry y="40" width="320" height="26" as="geometry" />
        </mxCell>
        <mxCell id="Lt1glxpejdCGCQJNRhZV-18" value="- workers : List&lt;Worker&gt;" style="text;align=left;verticalAlign=top;spacingLeft=4;spacingRight=4;overflow=hidden;rotatable=0;points=[[0,0.5],[1,0.5]];portConstraint=eastwest;" parent="Lt1glxpejdCGCQJNRhZV-17" vertex="1">
          <mxGeometry y="66" width="320" height="26" as="geometry" />
        </mxCell>
        <mxCell id="r6FBFTWDfDrPuH4waTix-57" value="- VIPArea: VIP" style="text;align=left;verticalAlign=top;spacingLeft=4;spacingRight=4;overflow=hidden;rotatable=0;points=[[0,0.5],[1,0.5]];portConstraint=eastwest;rounded=0;shadow=0;html=0;" vertex="1" parent="Lt1glxpejdCGCQJNRhZV-17">
          <mxGeometry y="92" width="320" height="26" as="geometry" />
        </mxCell>
        <mxCell id="Lt1glxpejdCGCQJNRhZV-23" value="" style="line;html=1;strokeWidth=1;align=left;verticalAlign=middle;spacingTop=-1;spacingLeft=3;spacingRight=3;rotatable=0;labelPosition=right;points=[];portConstraint=eastwest;" parent="Lt1glxpejdCGCQJNRhZV-17" vertex="1">
          <mxGeometry y="118" width="320" height="8" as="geometry" />
        </mxCell>
        <mxCell id="r6FBFTWDfDrPuH4waTix-43" value="+ showWinners() : void" style="text;align=left;verticalAlign=top;spacingLeft=4;spacingRight=4;overflow=hidden;rotatable=0;points=[[0,0.5],[1,0.5]];portConstraint=eastwest;" vertex="1" parent="Lt1glxpejdCGCQJNRhZV-17">
          <mxGeometry y="126" width="320" height="26" as="geometry" />
        </mxCell>
        <mxCell id="r6FBFTWDfDrPuH4waTix-42" value="+ sendUpdatesToWorkers(update : String) : void" style="text;align=left;verticalAlign=top;spacingLeft=4;spacingRight=4;overflow=hidden;rotatable=0;points=[[0,0.5],[1,0.5]];portConstraint=eastwest;" vertex="1" parent="Lt1glxpejdCGCQJNRhZV-17">
          <mxGeometry y="152" width="320" height="26" as="geometry" />
        </mxCell>
        <mxCell id="r6FBFTWDfDrPuH4waTix-176" value="+ addWorker(newWorker : Worker) : void" style="text;align=left;verticalAlign=top;spacingLeft=4;spacingRight=4;overflow=hidden;rotatable=0;points=[[0,0.5],[1,0.5]];portConstraint=eastwest;" vertex="1" parent="Lt1glxpejdCGCQJNRhZV-17">
          <mxGeometry y="178" width="320" height="26" as="geometry" />
        </mxCell>
        <mxCell id="r6FBFTWDfDrPuH4waTix-100" style="edgeStyle=orthogonalEdgeStyle;rounded=0;orthogonalLoop=1;jettySize=auto;html=1;entryX=0.5;entryY=1;entryDx=0;entryDy=0;endArrow=block;endFill=1;endSize=12;" edge="1" parent="WIyWlLk6GJQsqaUBKTNV-1" source="Lt1glxpejdCGCQJNRhZV-26" target="r6FBFTWDfDrPuH4waTix-14">
          <mxGeometry relative="1" as="geometry" />
        </mxCell>
        <mxCell id="Lt1glxpejdCGCQJNRhZV-26" value="&lt;abstract class&gt;&#xa;Worker" style="swimlane;fontStyle=0;align=center;verticalAlign=top;childLayout=stackLayout;horizontal=1;startSize=40;horizontalStack=0;resizeParent=1;resizeLast=0;collapsible=1;marginBottom=0;rounded=0;shadow=0;strokeWidth=1;fillColor=#f5f5f5;fontColor=#333333;strokeColor=#666666;" parent="WIyWlLk6GJQsqaUBKTNV-1" vertex="1">
          <mxGeometry x="862.3400000000001" y="473" width="160" height="80" as="geometry">
            <mxRectangle x="340" y="380" width="170" height="26" as="alternateBounds" />
          </mxGeometry>
        </mxCell>
        <mxCell id="Lt1glxpejdCGCQJNRhZV-28" value="# email : String" style="text;align=left;verticalAlign=top;spacingLeft=4;spacingRight=4;overflow=hidden;rotatable=0;points=[[0,0.5],[1,0.5]];portConstraint=eastwest;" parent="Lt1glxpejdCGCQJNRhZV-26" vertex="1">
          <mxGeometry y="40" width="160" height="26" as="geometry" />
        </mxCell>
        <mxCell id="Lt1glxpejdCGCQJNRhZV-29" value="" style="line;html=1;strokeWidth=1;align=left;verticalAlign=middle;spacingTop=-1;spacingLeft=3;spacingRight=3;rotatable=0;labelPosition=right;points=[];portConstraint=eastwest;" parent="Lt1glxpejdCGCQJNRhZV-26" vertex="1">
          <mxGeometry y="66" width="160" height="14" as="geometry" />
        </mxCell>
        <mxCell id="Lt1glxpejdCGCQJNRhZV-38" value="&lt;class&gt;&#xa;VIP" style="swimlane;fontStyle=0;align=center;verticalAlign=top;childLayout=stackLayout;horizontal=1;startSize=40;horizontalStack=0;resizeParent=1;resizeLast=0;collapsible=1;marginBottom=0;rounded=0;shadow=0;strokeWidth=1;fillColor=#d5e8d4;strokeColor=#82b366;" parent="WIyWlLk6GJQsqaUBKTNV-1" vertex="1">
          <mxGeometry x="-991" y="486" width="430" height="138" as="geometry">
            <mxRectangle x="130" y="380" width="160" height="26" as="alternateBounds" />
          </mxGeometry>
        </mxCell>
        <mxCell id="Lt1glxpejdCGCQJNRhZV-39" value="- physiotherapists : List&lt;physiotherapist&gt;" style="text;align=left;verticalAlign=top;spacingLeft=4;spacingRight=4;overflow=hidden;rotatable=0;points=[[0,0.5],[1,0.5]];portConstraint=eastwest;" parent="Lt1glxpejdCGCQJNRhZV-38" vertex="1">
          <mxGeometry y="40" width="430" height="26" as="geometry" />
        </mxCell>
        <mxCell id="Lt1glxpejdCGCQJNRhZV-41" value="" style="line;html=1;strokeWidth=1;align=left;verticalAlign=middle;spacingTop=-1;spacingLeft=3;spacingRight=3;rotatable=0;labelPosition=right;points=[];portConstraint=eastwest;" parent="Lt1glxpejdCGCQJNRhZV-38" vertex="1">
          <mxGeometry y="66" width="430" height="8" as="geometry" />
        </mxCell>
        <mxCell id="Lt1glxpejdCGCQJNRhZV-42" value="+ checkCanEnter (person : Person) : boolean" style="text;align=left;verticalAlign=top;spacingLeft=4;spacingRight=4;overflow=hidden;rotatable=0;points=[[0,0.5],[1,0.5]];portConstraint=eastwest;fontStyle=0" parent="Lt1glxpejdCGCQJNRhZV-38" vertex="1">
          <mxGeometry y="74" width="430" height="26" as="geometry" />
        </mxCell>
        <mxCell id="r6FBFTWDfDrPuH4waTix-19" value="+ letPersonIn (person : Person)  : void throws notAllowedToVIPException()" style="text;align=left;verticalAlign=top;spacingLeft=4;spacingRight=4;overflow=hidden;rotatable=0;points=[[0,0.5],[1,0.5]];portConstraint=eastwest;fontStyle=0" vertex="1" parent="Lt1glxpejdCGCQJNRhZV-38">
          <mxGeometry y="100" width="430" height="26" as="geometry" />
        </mxCell>
        <mxCell id="Lt1glxpejdCGCQJNRhZV-97" value="&lt;interface&gt;&#xa;payable" style="swimlane;fontStyle=0;align=center;verticalAlign=top;childLayout=stackLayout;horizontal=1;startSize=40;horizontalStack=0;resizeParent=1;resizeLast=0;collapsible=1;marginBottom=0;rounded=0;shadow=0;strokeWidth=1;fillColor=#e1d5e7;strokeColor=#9673a6;" parent="WIyWlLk6GJQsqaUBKTNV-1" vertex="1">
          <mxGeometry x="1002.3400000000001" y="902" width="160" height="80" as="geometry">
            <mxRectangle x="340" y="380" width="170" height="26" as="alternateBounds" />
          </mxGeometry>
        </mxCell>
        <mxCell id="Lt1glxpejdCGCQJNRhZV-100" value="" style="line;html=1;strokeWidth=1;align=left;verticalAlign=middle;spacingTop=-1;spacingLeft=3;spacingRight=3;rotatable=0;labelPosition=right;points=[];portConstraint=eastwest;" parent="Lt1glxpejdCGCQJNRhZV-97" vertex="1">
          <mxGeometry y="40" width="160" height="14" as="geometry" />
        </mxCell>
        <mxCell id="Lt1glxpejdCGCQJNRhZV-101" value="+ getPayment() : void" style="text;align=left;verticalAlign=top;spacingLeft=4;spacingRight=4;overflow=hidden;rotatable=0;points=[[0,0.5],[1,0.5]];portConstraint=eastwest;" parent="Lt1glxpejdCGCQJNRhZV-97" vertex="1">
          <mxGeometry y="54" width="160" height="26" as="geometry" />
        </mxCell>
        <mxCell id="r6FBFTWDfDrPuH4waTix-0" value="&lt;Enum&gt;&#xa;RaceLength" style="swimlane;fontStyle=0;align=center;verticalAlign=middle;childLayout=stackLayout;horizontal=1;startSize=50;horizontalStack=0;resizeParent=1;resizeLast=0;collapsible=1;marginBottom=0;rounded=0;shadow=0;strokeWidth=1;fillColor=#fff2cc;strokeColor=#d6b656;labelBackgroundColor=none;fontSize=12;" vertex="1" parent="WIyWlLk6GJQsqaUBKTNV-1">
          <mxGeometry x="-846" y="782.5" width="270" height="170" as="geometry">
            <mxRectangle x="220" y="120" width="160" height="40" as="alternateBounds" />
          </mxGeometry>
        </mxCell>
        <mxCell id="r6FBFTWDfDrPuH4waTix-1" value="TEN(10)" style="text;align=left;verticalAlign=top;spacingLeft=4;spacingRight=4;overflow=hidden;rotatable=0;points=[[0,0.5],[1,0.5]];portConstraint=eastwest;" vertex="1" parent="r6FBFTWDfDrPuH4waTix-0">
          <mxGeometry y="50" width="270" height="26" as="geometry" />
        </mxCell>
        <mxCell id="r6FBFTWDfDrPuH4waTix-2" value="TWENTY_ONE(21)" style="text;align=left;verticalAlign=top;spacingLeft=4;spacingRight=4;overflow=hidden;rotatable=0;points=[[0,0.5],[1,0.5]];portConstraint=eastwest;rounded=0;shadow=0;html=0;" vertex="1" parent="r6FBFTWDfDrPuH4waTix-0">
          <mxGeometry y="76" width="270" height="26" as="geometry" />
        </mxCell>
        <mxCell id="r6FBFTWDfDrPuH4waTix-3" value="FORTY_TWO(42)" style="text;align=left;verticalAlign=top;spacingLeft=4;spacingRight=4;overflow=hidden;rotatable=0;points=[[0,0.5],[1,0.5]];portConstraint=eastwest;rounded=0;shadow=0;html=0;" vertex="1" parent="r6FBFTWDfDrPuH4waTix-0">
          <mxGeometry y="102" width="270" height="26" as="geometry" />
        </mxCell>
        <mxCell id="r6FBFTWDfDrPuH4waTix-13" value="- LENGTH: int " style="text;align=left;verticalAlign=top;spacingLeft=4;spacingRight=4;overflow=hidden;rotatable=0;points=[[0,0.5],[1,0.5]];portConstraint=eastwest;rounded=0;shadow=0;html=0;" vertex="1" parent="r6FBFTWDfDrPuH4waTix-0">
          <mxGeometry y="128" width="270" height="26" as="geometry" />
        </mxCell>
        <mxCell id="r6FBFTWDfDrPuH4waTix-6" value="" style="line;html=1;strokeWidth=1;align=left;verticalAlign=middle;spacingTop=-1;spacingLeft=3;spacingRight=3;rotatable=0;labelPosition=right;points=[];portConstraint=eastwest;" vertex="1" parent="r6FBFTWDfDrPuH4waTix-0">
          <mxGeometry y="154" width="270" height="8" as="geometry" />
        </mxCell>
        <mxCell id="r6FBFTWDfDrPuH4waTix-14" value="&lt;abstract class&gt;&#xa;Person" style="swimlane;fontStyle=0;align=center;verticalAlign=top;childLayout=stackLayout;horizontal=1;startSize=40;horizontalStack=0;resizeParent=1;resizeLast=0;collapsible=1;marginBottom=0;rounded=0;shadow=0;strokeWidth=1;fillColor=#f5f5f5;strokeColor=#666666;fontColor=#333333;" vertex="1" parent="WIyWlLk6GJQsqaUBKTNV-1">
          <mxGeometry x="862.3400000000001" y="342" width="160" height="80" as="geometry">
            <mxRectangle x="340" y="380" width="170" height="26" as="alternateBounds" />
          </mxGeometry>
        </mxCell>
        <mxCell id="r6FBFTWDfDrPuH4waTix-15" value="# name : String" style="text;align=left;verticalAlign=top;spacingLeft=4;spacingRight=4;overflow=hidden;rotatable=0;points=[[0,0.5],[1,0.5]];portConstraint=eastwest;" vertex="1" parent="r6FBFTWDfDrPuH4waTix-14">
          <mxGeometry y="40" width="160" height="24" as="geometry" />
        </mxCell>
        <mxCell id="r6FBFTWDfDrPuH4waTix-17" value="" style="line;html=1;strokeWidth=1;align=left;verticalAlign=middle;spacingTop=-1;spacingLeft=3;spacingRight=3;rotatable=0;labelPosition=right;points=[];portConstraint=eastwest;" vertex="1" parent="r6FBFTWDfDrPuH4waTix-14">
          <mxGeometry y="64" width="160" height="8" as="geometry" />
        </mxCell>
        <mxCell id="r6FBFTWDfDrPuH4waTix-156" style="edgeStyle=orthogonalEdgeStyle;rounded=0;orthogonalLoop=1;jettySize=auto;html=1;entryX=0.5;entryY=1;entryDx=0;entryDy=0;endArrow=block;endFill=1;endSize=12;exitX=0.5;exitY=0;exitDx=0;exitDy=0;" edge="1" parent="WIyWlLk6GJQsqaUBKTNV-1" source="r6FBFTWDfDrPuH4waTix-20" target="r6FBFTWDfDrPuH4waTix-153">
          <mxGeometry relative="1" as="geometry">
            <Array as="points">
              <mxPoint x="-290" y="240" />
              <mxPoint x="117" y="240" />
            </Array>
          </mxGeometry>
        </mxCell>
        <mxCell id="r6FBFTWDfDrPuH4waTix-20" value="&lt;Exception&gt;&#xa;NotAllowedToVIPException" style="swimlane;fontStyle=1;align=center;verticalAlign=middle;childLayout=stackLayout;horizontal=1;startSize=40;horizontalStack=0;resizeParent=1;resizeLast=0;collapsible=1;marginBottom=0;rounded=0;shadow=0;strokeWidth=1;fillColor=#f8cecc;strokeColor=#b85450;labelBackgroundColor=none;fontSize=12;" vertex="1" parent="WIyWlLk6GJQsqaUBKTNV-1">
          <mxGeometry x="-410" y="297" width="240" height="90" as="geometry">
            <mxRectangle x="220" y="120" width="160" height="40" as="alternateBounds" />
          </mxGeometry>
        </mxCell>
        <mxCell id="r6FBFTWDfDrPuH4waTix-21" value="" style="line;html=1;strokeWidth=1;align=left;verticalAlign=middle;spacingTop=-1;spacingLeft=3;spacingRight=3;rotatable=0;labelPosition=right;points=[];portConstraint=eastwest;" vertex="1" parent="r6FBFTWDfDrPuH4waTix-20">
          <mxGeometry y="40" width="240" height="8" as="geometry" />
        </mxCell>
        <mxCell id="r6FBFTWDfDrPuH4waTix-22" value="+ notAllowedToVIPException(msg: String)" style="text;align=left;verticalAlign=top;spacingLeft=4;spacingRight=4;overflow=hidden;rotatable=0;points=[[0,0.5],[1,0.5]];portConstraint=eastwest;" vertex="1" parent="r6FBFTWDfDrPuH4waTix-20">
          <mxGeometry y="48" width="240" height="26" as="geometry" />
        </mxCell>
        <mxCell id="r6FBFTWDfDrPuH4waTix-109" style="edgeStyle=orthogonalEdgeStyle;rounded=0;orthogonalLoop=1;jettySize=auto;html=1;endArrow=block;endFill=1;endSize=12;" edge="1" parent="WIyWlLk6GJQsqaUBKTNV-1" source="r6FBFTWDfDrPuH4waTix-26" target="zkfFHV4jXpPFQw0GAbJ--13">
          <mxGeometry relative="1" as="geometry" />
        </mxCell>
        <mxCell id="r6FBFTWDfDrPuH4waTix-26" value="&lt;class&gt;&#xa;RunnerVIP" style="swimlane;fontStyle=0;align=center;verticalAlign=top;childLayout=stackLayout;horizontal=1;startSize=40;horizontalStack=0;resizeParent=1;resizeLast=0;collapsible=1;marginBottom=0;rounded=0;shadow=0;strokeWidth=1;fillColor=#d5e8d4;strokeColor=#82b366;" vertex="1" parent="WIyWlLk6GJQsqaUBKTNV-1">
          <mxGeometry x="224" y="770" width="220" height="100" as="geometry">
            <mxRectangle x="340" y="380" width="170" height="26" as="alternateBounds" />
          </mxGeometry>
        </mxCell>
        <mxCell id="r6FBFTWDfDrPuH4waTix-41" value="- gifts : List&lt;String&gt;" style="text;align=left;verticalAlign=top;spacingLeft=4;spacingRight=4;overflow=hidden;rotatable=0;points=[[0,0.5],[1,0.5]];portConstraint=eastwest;" vertex="1" parent="r6FBFTWDfDrPuH4waTix-26">
          <mxGeometry y="40" width="220" height="26" as="geometry" />
        </mxCell>
        <mxCell id="r6FBFTWDfDrPuH4waTix-31" value="" style="line;html=1;strokeWidth=1;align=left;verticalAlign=middle;spacingTop=-1;spacingLeft=3;spacingRight=3;rotatable=0;labelPosition=right;points=[];portConstraint=eastwest;" vertex="1" parent="r6FBFTWDfDrPuH4waTix-26">
          <mxGeometry y="66" width="220" height="8" as="geometry" />
        </mxCell>
        <mxCell id="r6FBFTWDfDrPuH4waTix-32" value="+ getSponserGifts(gift : String) : void" style="text;align=left;verticalAlign=top;spacingLeft=4;spacingRight=4;overflow=hidden;rotatable=0;points=[[0,0.5],[1,0.5]];portConstraint=eastwest;fontStyle=0" vertex="1" parent="r6FBFTWDfDrPuH4waTix-26">
          <mxGeometry y="74" width="220" height="26" as="geometry" />
        </mxCell>
        <mxCell id="r6FBFTWDfDrPuH4waTix-178" style="edgeStyle=orthogonalEdgeStyle;rounded=0;orthogonalLoop=1;jettySize=auto;html=1;entryX=0.5;entryY=1;entryDx=0;entryDy=0;endArrow=diamondThin;endFill=1;endSize=12;" edge="1" parent="WIyWlLk6GJQsqaUBKTNV-1" source="r6FBFTWDfDrPuH4waTix-46" target="r6FBFTWDfDrPuH4waTix-58">
          <mxGeometry relative="1" as="geometry" />
        </mxCell>
        <mxCell id="r6FBFTWDfDrPuH4waTix-46" value="&lt;class&gt;&#xa;FinanceRecord" style="swimlane;fontStyle=0;align=center;verticalAlign=top;childLayout=stackLayout;horizontal=1;startSize=50;horizontalStack=0;resizeParent=1;resizeLast=0;collapsible=1;marginBottom=0;rounded=0;shadow=0;strokeWidth=1;fillColor=#d5e8d4;strokeColor=#82b366;" vertex="1" parent="WIyWlLk6GJQsqaUBKTNV-1">
          <mxGeometry x="-1390" y="1001.1199999999999" width="190" height="110" as="geometry">
            <mxRectangle x="130" y="380" width="160" height="26" as="alternateBounds" />
          </mxGeometry>
        </mxCell>
        <mxCell id="r6FBFTWDfDrPuH4waTix-52" value="- source : String" style="text;align=left;verticalAlign=top;spacingLeft=4;spacingRight=4;overflow=hidden;rotatable=0;points=[[0,0.5],[1,0.5]];portConstraint=eastwest;rounded=0;shadow=0;html=0;" vertex="1" parent="r6FBFTWDfDrPuH4waTix-46">
          <mxGeometry y="50" width="190" height="26" as="geometry" />
        </mxCell>
        <mxCell id="r6FBFTWDfDrPuH4waTix-53" value="- amount : double" style="text;align=left;verticalAlign=top;spacingLeft=4;spacingRight=4;overflow=hidden;rotatable=0;points=[[0,0.5],[1,0.5]];portConstraint=eastwest;rounded=0;shadow=0;html=0;" vertex="1" parent="r6FBFTWDfDrPuH4waTix-46">
          <mxGeometry y="76" width="190" height="26" as="geometry" />
        </mxCell>
        <mxCell id="r6FBFTWDfDrPuH4waTix-49" value="" style="line;html=1;strokeWidth=1;align=left;verticalAlign=middle;spacingTop=-1;spacingLeft=3;spacingRight=3;rotatable=0;labelPosition=right;points=[];portConstraint=eastwest;" vertex="1" parent="r6FBFTWDfDrPuH4waTix-46">
          <mxGeometry y="102" width="190" height="8" as="geometry" />
        </mxCell>
        <mxCell id="r6FBFTWDfDrPuH4waTix-179" style="edgeStyle=orthogonalEdgeStyle;rounded=0;orthogonalLoop=1;jettySize=auto;html=1;entryX=0.5;entryY=1;entryDx=0;entryDy=0;endArrow=open;endFill=0;endSize=12;startSize=6;" edge="1" parent="WIyWlLk6GJQsqaUBKTNV-1" source="r6FBFTWDfDrPuH4waTix-58" target="Lt1glxpejdCGCQJNRhZV-17">
          <mxGeometry relative="1" as="geometry" />
        </mxCell>
        <mxCell id="r6FBFTWDfDrPuH4waTix-58" value="&lt;class&gt;&#xa;FinanceManagement" style="swimlane;fontStyle=0;align=center;verticalAlign=top;childLayout=stackLayout;horizontal=1;startSize=50;horizontalStack=0;resizeParent=1;resizeLast=0;collapsible=1;marginBottom=0;rounded=0;shadow=0;strokeWidth=1;fillColor=#d5e8d4;strokeColor=#82b366;" vertex="1" parent="WIyWlLk6GJQsqaUBKTNV-1">
          <mxGeometry x="-1490" y="590.8699999999999" width="390" height="344" as="geometry">
            <mxRectangle x="130" y="380" width="160" height="26" as="alternateBounds" />
          </mxGeometry>
        </mxCell>
        <mxCell id="r6FBFTWDfDrPuH4waTix-62" value="- expensesRecords : List&lt;FinanceRecord&gt;" style="text;align=left;verticalAlign=top;spacingLeft=4;spacingRight=4;overflow=hidden;rotatable=0;points=[[0,0.5],[1,0.5]];portConstraint=eastwest;rounded=0;shadow=0;html=0;" vertex="1" parent="r6FBFTWDfDrPuH4waTix-58">
          <mxGeometry y="50" width="390" height="26" as="geometry" />
        </mxCell>
        <mxCell id="r6FBFTWDfDrPuH4waTix-63" value="- revenueRecords : List&lt;FinanceRecord&gt;" style="text;align=left;verticalAlign=top;spacingLeft=4;spacingRight=4;overflow=hidden;rotatable=0;points=[[0,0.5],[1,0.5]];portConstraint=eastwest;rounded=0;shadow=0;html=0;" vertex="1" parent="r6FBFTWDfDrPuH4waTix-58">
          <mxGeometry y="76" width="390" height="26" as="geometry" />
        </mxCell>
        <mxCell id="r6FBFTWDfDrPuH4waTix-169" value="&lt;span style=&quot;text-wrap-mode: nowrap;&quot;&gt;- &lt;/span&gt;&lt;span style=&quot;text-wrap-mode: nowrap; text-decoration-line: underline;&quot;&gt;PSYCHOTHRAPIST_COST&lt;/span&gt;&lt;span style=&quot;text-wrap-mode: nowrap;&quot;&gt; : int&lt;/span&gt;" style="text;strokeColor=none;fillColor=none;align=left;verticalAlign=top;spacingLeft=4;spacingRight=4;overflow=hidden;rotatable=0;points=[[0,0.5],[1,0.5]];portConstraint=eastwest;whiteSpace=wrap;html=1;" vertex="1" parent="r6FBFTWDfDrPuH4waTix-58">
          <mxGeometry y="102" width="390" height="26" as="geometry" />
        </mxCell>
        <mxCell id="r6FBFTWDfDrPuH4waTix-174" value="&lt;span style=&quot;text-wrap-mode: nowrap;&quot;&gt;- &lt;u&gt;PARAMEDIC_COST&lt;/u&gt; : int&lt;/span&gt;" style="text;strokeColor=none;fillColor=none;align=left;verticalAlign=top;spacingLeft=4;spacingRight=4;overflow=hidden;rotatable=0;points=[[0,0.5],[1,0.5]];portConstraint=eastwest;whiteSpace=wrap;html=1;" vertex="1" parent="r6FBFTWDfDrPuH4waTix-58">
          <mxGeometry y="128" width="390" height="26" as="geometry" />
        </mxCell>
        <mxCell id="r6FBFTWDfDrPuH4waTix-175" value="&lt;span style=&quot;text-wrap-mode: nowrap;&quot;&gt;- &lt;/span&gt;&lt;span style=&quot;text-wrap-mode: nowrap; text-decoration-line: underline;&quot;&gt;POLICE_COST&lt;/span&gt;&lt;span style=&quot;text-wrap-mode: nowrap;&quot;&gt; : int&lt;/span&gt;" style="text;strokeColor=none;fillColor=none;align=left;verticalAlign=top;spacingLeft=4;spacingRight=4;overflow=hidden;rotatable=0;points=[[0,0.5],[1,0.5]];portConstraint=eastwest;whiteSpace=wrap;html=1;" vertex="1" parent="r6FBFTWDfDrPuH4waTix-58">
          <mxGeometry y="154" width="390" height="26" as="geometry" />
        </mxCell>
        <mxCell id="r6FBFTWDfDrPuH4waTix-61" value="" style="line;html=1;strokeWidth=1;align=left;verticalAlign=middle;spacingTop=-1;spacingLeft=3;spacingRight=3;rotatable=0;labelPosition=right;points=[];portConstraint=eastwest;" vertex="1" parent="r6FBFTWDfDrPuH4waTix-58">
          <mxGeometry y="180" width="390" height="8" as="geometry" />
        </mxCell>
        <mxCell id="r6FBFTWDfDrPuH4waTix-74" value="+ calculateTotalExpenses() : double" style="text;align=left;verticalAlign=top;spacingLeft=4;spacingRight=4;overflow=hidden;rotatable=0;points=[[0,0.5],[1,0.5]];portConstraint=eastwest;" vertex="1" parent="r6FBFTWDfDrPuH4waTix-58">
          <mxGeometry y="188" width="390" height="26" as="geometry" />
        </mxCell>
        <mxCell id="r6FBFTWDfDrPuH4waTix-75" value="+ calculateTotalRevenue() : double" style="text;align=left;verticalAlign=top;spacingLeft=4;spacingRight=4;overflow=hidden;rotatable=0;points=[[0,0.5],[1,0.5]];portConstraint=eastwest;" vertex="1" parent="r6FBFTWDfDrPuH4waTix-58">
          <mxGeometry y="214" width="390" height="26" as="geometry" />
        </mxCell>
        <mxCell id="r6FBFTWDfDrPuH4waTix-72" value="+ addExpense(source : String, expense : double) : void" style="text;align=left;verticalAlign=top;spacingLeft=4;spacingRight=4;overflow=hidden;rotatable=0;points=[[0,0.5],[1,0.5]];portConstraint=eastwest;" vertex="1" parent="r6FBFTWDfDrPuH4waTix-58">
          <mxGeometry y="240" width="390" height="26" as="geometry" />
        </mxCell>
        <mxCell id="r6FBFTWDfDrPuH4waTix-73" value="+ addRevenue(source : String, expense : double) : void" style="text;align=left;verticalAlign=top;spacingLeft=4;spacingRight=4;overflow=hidden;rotatable=0;points=[[0,0.5],[1,0.5]];portConstraint=eastwest;" vertex="1" parent="r6FBFTWDfDrPuH4waTix-58">
          <mxGeometry y="266" width="390" height="26" as="geometry" />
        </mxCell>
        <mxCell id="r6FBFTWDfDrPuH4waTix-84" value="" style="endArrow=open;dashed=1;endFill=0;endSize=12;html=1;rounded=0;exitX=1;exitY=0.5;exitDx=0;exitDy=0;edgeStyle=entityRelationEdgeStyle;entryX=0.005;entryY=0.335;entryDx=0;entryDy=0;entryPerimeter=0;" edge="1" parent="WIyWlLk6GJQsqaUBKTNV-1" source="r6FBFTWDfDrPuH4waTix-19" target="r6FBFTWDfDrPuH4waTix-20">
          <mxGeometry width="160" relative="1" as="geometry">
            <mxPoint x="-791" y="-38" as="sourcePoint" />
            <mxPoint x="-631" y="-38" as="targetPoint" />
          </mxGeometry>
        </mxCell>
        <mxCell id="r6FBFTWDfDrPuH4waTix-86" value="" style="endArrow=diamondThin;endFill=1;endSize=12;html=1;rounded=0;exitX=-0.002;exitY=0.087;exitDx=0;exitDy=0;exitPerimeter=0;entryX=1;entryY=0.5;entryDx=0;entryDy=0;elbow=vertical;edgeStyle=entityRelationEdgeStyle;" edge="1" parent="WIyWlLk6GJQsqaUBKTNV-1" source="Lt1glxpejdCGCQJNRhZV-38" target="r6FBFTWDfDrPuH4waTix-57">
          <mxGeometry width="160" relative="1" as="geometry">
            <mxPoint x="-1111" y="-73.45000000000005" as="sourcePoint" />
            <mxPoint x="-1061" y="-158" as="targetPoint" />
          </mxGeometry>
        </mxCell>
        <mxCell id="r6FBFTWDfDrPuH4waTix-125" value="1" style="edgeLabel;html=1;align=center;verticalAlign=middle;resizable=0;points=[];" vertex="1" connectable="0" parent="r6FBFTWDfDrPuH4waTix-86">
          <mxGeometry x="-0.9678" y="2" relative="1" as="geometry">
            <mxPoint x="-15" as="offset" />
          </mxGeometry>
        </mxCell>
        <mxCell id="r6FBFTWDfDrPuH4waTix-126" value="1" style="edgeLabel;html=1;align=center;verticalAlign=middle;resizable=0;points=[];" vertex="1" connectable="0" parent="r6FBFTWDfDrPuH4waTix-86">
          <mxGeometry x="0.8961" y="-2" relative="1" as="geometry">
            <mxPoint x="16" y="-2" as="offset" />
          </mxGeometry>
        </mxCell>
        <mxCell id="r6FBFTWDfDrPuH4waTix-133" style="edgeStyle=entityRelationEdgeStyle;rounded=0;orthogonalLoop=1;jettySize=auto;html=1;entryX=1.003;entryY=0.175;entryDx=0;entryDy=0;entryPerimeter=0;exitX=0;exitY=0.5;exitDx=0;exitDy=0;endArrow=open;endFill=0;" edge="1" parent="WIyWlLk6GJQsqaUBKTNV-1" source="zkfFHV4jXpPFQw0GAbJ--18" target="r6FBFTWDfDrPuH4waTix-0">
          <mxGeometry relative="1" as="geometry" />
        </mxCell>
        <mxCell id="r6FBFTWDfDrPuH4waTix-147" style="edgeStyle=entityRelationEdgeStyle;rounded=0;orthogonalLoop=1;jettySize=auto;html=1;entryX=-0.004;entryY=0.142;entryDx=0;entryDy=0;entryPerimeter=0;endArrow=block;endFill=1;exitX=1.016;exitY=0.178;exitDx=0;exitDy=0;exitPerimeter=0;endSize=12;strokeWidth=1;" edge="1" parent="WIyWlLk6GJQsqaUBKTNV-1" source="zkfFHV4jXpPFQw0GAbJ--13" target="r6FBFTWDfDrPuH4waTix-14">
          <mxGeometry relative="1" as="geometry">
            <Array as="points">
              <mxPoint x="420" y="422" />
              <mxPoint x="570" y="353" />
              <mxPoint x="510" y="582" />
            </Array>
          </mxGeometry>
        </mxCell>
        <mxCell id="r6FBFTWDfDrPuH4waTix-158" style="edgeStyle=orthogonalEdgeStyle;rounded=0;orthogonalLoop=1;jettySize=auto;html=1;entryX=0.5;entryY=1;entryDx=0;entryDy=0;endSize=12;endArrow=block;endFill=1;" edge="1" parent="WIyWlLk6GJQsqaUBKTNV-1" source="r6FBFTWDfDrPuH4waTix-149" target="r6FBFTWDfDrPuH4waTix-153">
          <mxGeometry relative="1" as="geometry">
            <Array as="points">
              <mxPoint x="510" y="240" />
              <mxPoint x="117" y="240" />
            </Array>
          </mxGeometry>
        </mxCell>
        <mxCell id="r6FBFTWDfDrPuH4waTix-149" value="&lt;Exception&gt;&#xa;RunnerAlreadyInRaceException" style="swimlane;fontStyle=1;align=center;verticalAlign=middle;childLayout=stackLayout;horizontal=1;startSize=50;horizontalStack=0;resizeParent=1;resizeLast=0;collapsible=1;marginBottom=0;rounded=0;shadow=0;strokeWidth=1;fillColor=#f8cecc;strokeColor=#b85450;labelBackgroundColor=none;fontSize=12;" vertex="1" parent="WIyWlLk6GJQsqaUBKTNV-1">
          <mxGeometry x="370" y="297" width="280" height="90" as="geometry">
            <mxRectangle x="220" y="120" width="160" height="40" as="alternateBounds" />
          </mxGeometry>
        </mxCell>
        <mxCell id="r6FBFTWDfDrPuH4waTix-150" value="" style="line;html=1;strokeWidth=1;align=left;verticalAlign=middle;spacingTop=-1;spacingLeft=3;spacingRight=3;rotatable=0;labelPosition=right;points=[];portConstraint=eastwest;" vertex="1" parent="r6FBFTWDfDrPuH4waTix-149">
          <mxGeometry y="50" width="280" height="8" as="geometry" />
        </mxCell>
        <mxCell id="r6FBFTWDfDrPuH4waTix-151" value="+ RunnerAlreadyInRaceException(msg: String)" style="text;align=left;verticalAlign=top;spacingLeft=4;spacingRight=4;overflow=hidden;rotatable=0;points=[[0,0.5],[1,0.5]];portConstraint=eastwest;" vertex="1" parent="r6FBFTWDfDrPuH4waTix-149">
          <mxGeometry y="58" width="280" height="26" as="geometry" />
        </mxCell>
        <mxCell id="r6FBFTWDfDrPuH4waTix-153" value="&lt;Exception&gt;&#xa;MarathonException" style="swimlane;fontStyle=1;align=center;verticalAlign=middle;childLayout=stackLayout;horizontal=1;startSize=40;horizontalStack=0;resizeParent=1;resizeLast=0;collapsible=1;marginBottom=0;rounded=0;shadow=0;strokeWidth=1;fillColor=#f8cecc;strokeColor=#b85450;labelBackgroundColor=none;fontSize=12;" vertex="1" parent="WIyWlLk6GJQsqaUBKTNV-1">
          <mxGeometry x="-3" y="27" width="240" height="90" as="geometry">
            <mxRectangle x="220" y="120" width="160" height="40" as="alternateBounds" />
          </mxGeometry>
        </mxCell>
        <mxCell id="r6FBFTWDfDrPuH4waTix-154" value="" style="line;html=1;strokeWidth=1;align=left;verticalAlign=middle;spacingTop=-1;spacingLeft=3;spacingRight=3;rotatable=0;labelPosition=right;points=[];portConstraint=eastwest;" vertex="1" parent="r6FBFTWDfDrPuH4waTix-153">
          <mxGeometry y="40" width="240" height="8" as="geometry" />
        </mxCell>
        <mxCell id="r6FBFTWDfDrPuH4waTix-155" value="+ notAllowedToVIPException(msg: String)" style="text;align=left;verticalAlign=top;spacingLeft=4;spacingRight=4;overflow=hidden;rotatable=0;points=[[0,0.5],[1,0.5]];portConstraint=eastwest;" vertex="1" parent="r6FBFTWDfDrPuH4waTix-153">
          <mxGeometry y="48" width="240" height="26" as="geometry" />
        </mxCell>
        <mxCell id="r6FBFTWDfDrPuH4waTix-166" style="edgeStyle=orthogonalEdgeStyle;rounded=0;orthogonalLoop=1;jettySize=auto;html=1;entryX=0.5;entryY=1;entryDx=0;entryDy=0;endArrow=block;endFill=1;endSize=12;" edge="1" parent="WIyWlLk6GJQsqaUBKTNV-1" source="r6FBFTWDfDrPuH4waTix-159" target="r6FBFTWDfDrPuH4waTix-153">
          <mxGeometry relative="1" as="geometry" />
        </mxCell>
        <mxCell id="r6FBFTWDfDrPuH4waTix-159" value="&lt;Exception&gt;&#xa;RunnerNotFinishedException" style="swimlane;fontStyle=1;align=center;verticalAlign=middle;childLayout=stackLayout;horizontal=1;startSize=50;horizontalStack=0;resizeParent=1;resizeLast=0;collapsible=1;marginBottom=0;rounded=0;shadow=0;strokeWidth=1;fillColor=#f8cecc;strokeColor=#b85450;labelBackgroundColor=none;fontSize=12;" vertex="1" parent="WIyWlLk6GJQsqaUBKTNV-1">
          <mxGeometry x="-23" y="297" width="280" height="90" as="geometry">
            <mxRectangle x="220" y="120" width="160" height="40" as="alternateBounds" />
          </mxGeometry>
        </mxCell>
        <mxCell id="r6FBFTWDfDrPuH4waTix-160" value="" style="line;html=1;strokeWidth=1;align=left;verticalAlign=middle;spacingTop=-1;spacingLeft=3;spacingRight=3;rotatable=0;labelPosition=right;points=[];portConstraint=eastwest;" vertex="1" parent="r6FBFTWDfDrPuH4waTix-159">
          <mxGeometry y="50" width="280" height="8" as="geometry" />
        </mxCell>
        <mxCell id="r6FBFTWDfDrPuH4waTix-161" value="+ RunnerNotFinishedException(msg: String)" style="text;align=left;verticalAlign=top;spacingLeft=4;spacingRight=4;overflow=hidden;rotatable=0;points=[[0,0.5],[1,0.5]];portConstraint=eastwest;" vertex="1" parent="r6FBFTWDfDrPuH4waTix-159">
          <mxGeometry y="58" width="280" height="26" as="geometry" />
        </mxCell>
        <mxCell id="r6FBFTWDfDrPuH4waTix-165" style="edgeStyle=orthogonalEdgeStyle;rounded=0;orthogonalLoop=1;jettySize=auto;html=1;exitX=1;exitY=0.5;exitDx=0;exitDy=0;entryX=0.5;entryY=1;entryDx=0;entryDy=0;dashed=1;strokeWidth=1;endSize=12;endArrow=open;endFill=0;" edge="1" parent="WIyWlLk6GJQsqaUBKTNV-1" source="r6FBFTWDfDrPuH4waTix-10" target="r6FBFTWDfDrPuH4waTix-149">
          <mxGeometry relative="1" as="geometry" />
        </mxCell>
        <mxCell id="r6FBFTWDfDrPuH4waTix-167" style="edgeStyle=orthogonalEdgeStyle;rounded=0;orthogonalLoop=1;jettySize=auto;html=1;entryX=0.5;entryY=1;entryDx=0;entryDy=0;dashed=1;endArrow=open;endFill=0;endSize=12;" edge="1" parent="WIyWlLk6GJQsqaUBKTNV-1" source="zkfFHV4jXpPFQw0GAbJ--24" target="r6FBFTWDfDrPuH4waTix-159">
          <mxGeometry relative="1" as="geometry" />
        </mxCell>
      </root>
    </mxGraphModel>
  </diagram>
</mxfile>
